<svg width="132" height="121" viewBox="0 0 132 121" fill="none" xmlns="http://www.w3.org/2000/svg">
<path d="M114.289 90.63C108.439 95.2027 101.156 97.6566 93.8325 98.8609C93.1869 98.9741 92.546 99.0691 91.9004 99.1506C90.4139 99.3589 88.9229 99.5173 87.4273 99.6486C85.5389 99.8097 83.78 100.671 82.4987 102.062C81.2174 103.453 80.5071 105.272 80.5084 107.16V117.45C80.5105 117.794 80.4077 118.131 80.2137 118.415C80.0196 118.7 79.7434 118.919 79.4216 119.043C79.0999 119.168 78.7476 119.192 78.4116 119.113C78.0756 119.034 77.7716 118.855 77.5399 118.6C73.844 114.422 67.898 110.782 61.67 107.798C59.8517 106.915 57.9969 106.096 56.1604 105.344C49.7338 102.693 43.1403 100.462 36.422 98.6662C34.8445 98.2995 33.2807 97.8648 31.7488 97.3532C31.6533 97.3215 31.5715 97.3034 31.4942 97.2717L30.2213 96.819L30.044 96.7556C23.5797 94.3968 17.6337 90.7387 13.2241 85.5231C7.02803 78.175 4.41412 68.4683 3.4322 58.9335C2.17753 46.6325 3.52767 33.2766 10.3784 22.6371C17.3245 11.8528 28.9257 6.01241 41.427 4.16522C52.0918 2.57609 62.9384 3.45894 73.7349 3.68531C86.9181 3.97054 101.047 3.52233 112.048 10.7436C118.335 14.8681 122.958 21.2246 125.763 28.1877C128.568 35.1509 129.663 42.6755 129.823 50.2046C130.159 65.1587 126.131 81.385 114.289 90.63Z" fill="#5A6CFF"/>
<path style="mix-blend-mode:multiply" opacity="0.51" d="M37.9494 77.5684C41.427 80.2848 45.7638 81.7517 50.1324 82.4671C50.5189 82.5304 50.9007 82.5893 51.2826 82.6391H51.3508C53.1926 82.8672 54.8886 83.7535 56.1235 85.1334C57.3585 86.5132 58.0484 88.2927 58.0651 90.141V91.8298C58.0639 92.1591 58.159 92.4816 58.3386 92.758C58.5182 93.0345 58.7747 93.2529 59.0768 93.3868C59.3788 93.5207 59.7135 93.5641 60.0399 93.512C60.3664 93.4598 60.6705 93.3142 60.9154 93.0929C63.102 91.0692 66.125 89.2808 69.2708 87.7732C70.3527 87.248 71.4574 86.7636 72.5484 86.3154C76.3734 84.7384 80.2972 83.4105 84.2951 82.3403C85.2361 82.123 86.1634 81.8876 87.0726 81.557C87.1317 81.557 87.1817 81.5299 87.2272 81.5118L87.9864 81.2537L88.0909 81.2175C91.9368 79.814 95.4735 77.6408 98.0919 74.535C101.774 70.1615 103.324 64.3845 103.911 58.689C104.656 51.3591 103.852 43.4225 99.7785 37.1023C95.6462 30.6778 88.741 27.2008 81.3039 26.1006C74.9396 25.1589 68.5025 25.6841 62.0791 25.8154C54.2465 25.9874 45.8275 25.7203 39.2813 30.0168C35.54 32.4707 32.7897 36.2511 31.0987 40.3982C29.4076 44.5453 28.7802 49.0275 28.6848 53.4961C28.5029 62.4151 30.9123 72.0676 37.9494 77.5684Z" fill="url(#paint0_linear_1_164)"/>
<path style="mix-blend-mode:multiply" opacity="0.51" d="M72.3485 100.301L61.6474 107.798C59.829 106.915 57.9742 106.096 56.1377 105.344C49.7111 102.693 43.1177 100.462 36.3993 98.6662C36.3993 98.6662 46.5503 101.31 72.3485 100.301Z" fill="url(#paint1_linear_1_164)"/>
<path d="M37.9494 73.376C41.4271 76.0925 45.7639 77.5593 50.1325 78.2747C50.5189 78.3426 50.9008 78.4015 51.2826 78.4467H51.3508C53.1926 78.6748 54.8886 79.5612 56.1236 80.941C57.3586 82.3208 58.0485 84.1003 58.0651 85.9487V87.6374C58.0631 87.9671 58.1575 88.2902 58.3368 88.5673C58.5161 88.8445 58.7725 89.0636 59.0747 89.198C59.377 89.3325 59.712 89.3763 60.0388 89.3243C60.3657 89.2723 60.6703 89.1266 60.9154 88.9051C63.102 86.8768 66.1251 85.0885 69.2709 83.5854C70.3528 83.0602 71.4574 82.5712 72.5485 82.123C76.373 80.5462 80.297 79.2199 84.2951 78.1524C85.2361 77.9306 86.1635 77.6725 87.0727 77.3692C87.1254 77.3567 87.1771 77.34 87.2272 77.3194L87.9864 77.0613L88.091 77.0251C91.9368 75.6216 95.4735 73.4439 98.092 70.3381C101.774 65.9691 103.324 60.1921 103.911 54.5193C104.656 47.1848 103.852 39.2483 99.7785 32.928C95.6463 26.5036 88.741 23.0265 81.3039 21.9309C74.9396 20.9846 68.5026 21.5098 62.0792 21.6411C54.2466 21.8131 45.8275 21.546 39.2814 25.8426C35.5401 28.2964 32.7898 32.0813 31.1215 36.2194C29.4531 40.3575 28.803 44.8532 28.7076 49.349C28.503 58.2227 30.9123 67.8752 37.9494 73.376Z" fill="white"/>
<path style="mix-blend-mode:multiply" opacity="0.51" d="M62.9065 79.1304L69.2708 83.5944C70.3527 83.0692 71.4574 82.5803 72.5484 82.1321C76.373 80.5553 80.2969 79.2289 84.2951 78.1615C84.2951 78.1615 78.2535 79.7325 62.9065 79.1304Z" fill="url(#paint2_linear_1_164)"/>
<path d="M46.4639 58.7796C50.491 58.7796 53.7556 55.5283 53.7556 51.5176C53.7556 47.5069 50.491 44.2556 46.4639 44.2556C42.4368 44.2556 39.1722 47.5069 39.1722 51.5176C39.1722 55.5283 42.4368 58.7796 46.4639 58.7796Z" fill="#8A97FF"/>
<path d="M66.4296 58.7796C70.4567 58.7796 73.7213 55.5283 73.7213 51.5176C73.7213 47.5069 70.4567 44.2556 66.4296 44.2556C62.4025 44.2556 59.1379 47.5069 59.1379 51.5176C59.1379 55.5283 62.4025 58.7796 66.4296 58.7796Z" fill="#8A97FF"/>
<path d="M86.3908 58.7796C90.4179 58.7796 93.6824 55.5283 93.6824 51.5176C93.6824 47.5069 90.4179 44.2556 86.3908 44.2556C82.3637 44.2556 79.0991 47.5069 79.0991 51.5176C79.0991 55.5283 82.3637 58.7796 86.3908 58.7796Z" fill="#8A97FF"/>
<defs>
<linearGradient id="paint0_linear_1_164" x1="66.0932" y1="37.8312" x2="67.3873" y2="101.994" gradientUnits="userSpaceOnUse">
<stop offset="0.61" stop-color="#19004D" stop-opacity="0.91"/>
<stop offset="0.64" stop-color="#442B80" stop-opacity="0.63"/>
<stop offset="0.71" stop-color="#8A71D4" stop-opacity="0.17"/>
<stop offset="0.75" stop-color="#A58CF4" stop-opacity="0"/>
</linearGradient>
<linearGradient id="paint1_linear_1_164" x1="51.4599" y1="91.5083" x2="58.6812" y2="111.443" gradientUnits="userSpaceOnUse">
<stop offset="0.51" stop-color="#19004D" stop-opacity="0.91"/>
<stop offset="0.56" stop-color="#250C5B" stop-opacity="0.83"/>
<stop offset="0.63" stop-color="#472E84" stop-opacity="0.61"/>
<stop offset="0.71" stop-color="#7E65C6" stop-opacity="0.25"/>
<stop offset="0.76" stop-color="#A58CF4" stop-opacity="0"/>
</linearGradient>
<linearGradient id="paint2_linear_1_164" x1="75.3305" y1="73.9012" x2="71.0339" y2="85.7607" gradientUnits="userSpaceOnUse">
<stop offset="0.51" stop-color="#19004D" stop-opacity="0.91"/>
<stop offset="0.56" stop-color="#250C5B" stop-opacity="0.83"/>
<stop offset="0.63" stop-color="#472E84" stop-opacity="0.61"/>
<stop offset="0.71" stop-color="#7E65C6" stop-opacity="0.25"/>
<stop offset="0.76" stop-color="#A58CF4" stop-opacity="0"/>
</linearGradient>
</defs>
</svg>
