<svg width="64" height="64" viewBox="0 0 64 64" fill="none" xmlns="http://www.w3.org/2000/svg">
<path d="M38.082 23.7676V27.8868H39.7297C40.2984 27.8868 40.7595 27.4258 40.7595 26.8571V24.7974C40.7595 24.2287 40.2984 23.7677 39.7297 23.7677L38.082 23.7676Z" fill="#FCD0A3"/>
<path d="M23.2596 23.7676V27.8868H21.6119C21.0432 27.8868 20.582 27.4258 20.582 26.8571V24.7974C20.582 24.2287 21.0431 23.7677 21.6119 23.7677L23.2596 23.7676Z" fill="#FCD0A3"/>
<path d="M34.273 37.0645L37.7264 37.6897C42.8459 38.6165 46.5687 43.0738 46.5687 48.2766H14.7695C14.7695 43.0738 18.4924 38.6165 23.6119 37.6897L27.0653 37.0645H34.273Z" fill="#7FD061"/>
<path d="M37.7246 37.6905L37.0391 37.5664C40.1539 40.1305 42.0982 44.0091 42.0982 48.2774H46.5669C46.567 43.0746 42.8442 38.6172 37.7246 37.6905Z" fill="#51BE26"/>
<path d="M30.6722 43.8483C34.2203 43.8483 37.139 41.1096 37.4301 37.6354L34.276 37.0645H27.0682L23.9141 37.6354C24.2053 41.1096 27.124 43.8483 30.6722 43.8483Z" fill="white"/>
<path d="M30.6664 40.6693C28.676 40.6693 27.0625 39.0558 27.0625 37.0654V34.5215H34.2704V37.0654C34.2703 39.0558 32.6567 40.6693 30.6664 40.6693Z" fill="#FCD0A3"/>
<path d="M27.0626 36.8879C28.1751 37.3435 29.3919 37.5954 30.6665 37.5954C31.9411 37.5954 33.1579 37.3435 34.2704 36.8879V34.5215H27.0625V36.8879H27.0626Z" fill="#FFB983"/>
<path d="M23.2517 21.6035C23.2507 21.6035 23.25 21.6008 23.25 21.6018V28.0538C23.25 32.1704 26.6024 35.504 30.7261 35.4734C34.8173 35.443 38.0897 32.0519 38.0897 27.9607V21.6035H23.2517Z" fill="#FCD0A3"/>
<path d="M35.4386 28.0538C35.4386 31.6992 32.809 34.7283 29.3438 35.3533C29.7739 35.4309 30.2162 35.4737 30.6687 35.4737C34.7666 35.4737 38.0885 32.1517 38.0885 28.0538V21.6035H35.4386V28.0538Z" fill="#FFB983"/>
<path d="M23.2578 19.339V23.7673H31.4963C32.6339 23.7673 33.556 22.8452 33.556 21.7076V15.6318C33.556 14.2667 32.4494 13.1602 31.0844 13.1602H29.4367C26.0242 13.1602 23.2578 15.9265 23.2578 19.339Z" fill="#595959"/>
<path d="M33.5508 15.6309V21.7067C33.5508 22.8443 34.4729 23.7664 35.6104 23.7664H38.082V19.7501C38.082 17.4752 36.2377 15.6309 33.9627 15.6309H33.5508Z" fill="#434343"/>
<path d="M40.7366 5.33398H20.5942C20.3239 5.33398 20.0645 5.44135 19.8734 5.63254L5.63059 19.8754C5.4394 20.0666 5.33203 20.3258 5.33203 20.5962V40.7386C5.33203 41.0089 5.4394 41.2683 5.63059 41.4594L19.8734 55.7022C20.0646 55.8934 20.3239 56.0008 20.5942 56.0008H40.7366C41.007 56.0008 41.2663 55.8934 41.4574 55.7022L55.7003 41.4594C55.8915 41.2682 55.9988 41.0089 55.9988 40.7386V20.5962C55.9988 20.3258 55.8915 20.0665 55.7003 19.8754L41.4575 5.63254C41.2663 5.44135 41.0071 5.33398 40.7366 5.33398ZM9.74985 21.5816L21.5797 9.7518C21.7709 9.56061 22.0301 9.45324 22.3005 9.45324H39.0305C39.3008 9.45324 39.5602 9.56061 39.7513 9.7518L43.489 13.4895C43.8871 13.8876 43.8871 14.5331 43.489 14.9312L14.9293 43.4909C14.5311 43.889 13.8856 43.889 13.4875 43.4909L9.74985 39.7532C9.55866 39.562 9.45129 39.3028 9.45129 39.0324V22.3024C9.45129 22.0321 9.55866 21.7728 9.74985 21.5816ZM51.5811 39.7532L39.7513 51.5831C39.5601 51.7742 39.3008 51.8816 39.0305 51.8816H22.3005C22.0301 51.8816 21.7708 51.7742 21.5797 51.5831L17.842 47.8454C17.4439 47.4473 17.4439 46.8018 17.842 46.4037L46.4017 17.844C46.7998 17.4458 47.4453 17.4458 47.8434 17.844L51.5811 21.5816C51.7723 21.7728 51.8797 22.0321 51.8797 22.3025V39.0324C51.8797 39.3028 51.7723 39.562 51.5811 39.7532Z" fill="#FB636F"/>
<path d="M45.2319 9.41406C46.8778 12.2213 48.0538 15.3374 48.6482 18.6557L51.5734 21.5809C51.7646 21.7721 51.872 22.0314 51.872 22.3018V39.0317C51.872 39.3021 51.7646 39.5615 51.5734 39.7525L39.7436 51.5824C39.5524 51.7736 39.2931 51.8809 39.0228 51.8809H21.8705C21.8705 51.8809 21.2018 51.8809 20.8745 51.8809C19.0502 51.8809 17.267 51.7057 15.5391 51.375L19.8657 55.7016C20.0569 55.8928 20.3162 56.0002 20.5866 56.0002H40.7289C40.9993 56.0002 41.2586 55.8928 41.4497 55.7016L55.6926 41.4588C55.8838 41.2676 55.9911 41.0083 55.9911 40.738V20.5955C55.9911 20.3252 55.8838 20.0658 55.6926 19.8747L45.2319 9.41406Z" fill="#FA4954"/>
</svg>
