<svg width="22" height="22" viewBox="0 0 22 22" fill="none" xmlns="http://www.w3.org/2000/svg">
<path d="M18.418 2H3.58203C2.7098 2 2 2.7098 2 3.58203V4.28516H20V3.58203C20 2.7098 19.2902 2 18.418 2Z" fill="black"/>
<path d="M9.09724 10.3219L10.976 11.9658L13.7208 9.22088C13.9382 9.00351 14.2889 9.01954 14.4879 9.24342L15.8164 10.738V7.87109H6.18359V12.3392L8.39527 10.3286C8.59355 10.1482 8.89555 10.1454 9.09724 10.3219Z" fill="black"/>
<path d="M15.8164 12.3267L14.0711 10.3633L11.3729 13.0616C11.1765 13.2579 10.8616 13.2683 10.6527 13.0856L8.75668 11.4265L6.18359 13.7657V14.6926H15.8164V12.3267Z" fill="black"/>
<path d="M2 18.418C2 19.2902 2.7098 20 3.58203 20H18.418C19.2902 20 20 19.2902 20 18.418V5.33984H2V18.418ZM7.15412 17.8416L6.59162 18.4041C6.38567 18.6101 6.05179 18.6101 5.84585 18.4041L5.28335 17.8416C5.0774 17.6357 5.0774 17.3018 5.28335 17.0958C5.48926 16.8899 5.82317 16.8899 6.02912 17.0958L6.21875 17.2855L6.40838 17.0958C6.61429 16.8899 6.94821 16.8899 7.15415 17.0958C7.36006 17.3018 7.36006 17.6357 7.15412 17.8416ZM10.1562 18.2773H9.03125C8.74002 18.2773 8.50391 18.0412 8.50391 17.75C8.50391 17.4588 8.74002 17.2227 9.03125 17.2227H10.1562C10.4475 17.2227 10.6836 17.4588 10.6836 17.75C10.6836 18.0412 10.4475 18.2773 10.1562 18.2773ZM13.5312 18.2773H12.4062C12.115 18.2773 11.8789 18.0412 11.8789 17.75C11.8789 17.4588 12.115 17.2227 12.4062 17.2227H13.5312C13.8225 17.2227 14.0586 17.4588 14.0586 17.75C14.0586 18.0412 13.8225 18.2773 13.5312 18.2773ZM5.12891 7.34375C5.12891 7.05252 5.36502 6.81641 5.65625 6.81641H16.3438C16.635 6.81641 16.8711 7.05252 16.8711 7.34375V15.2188C16.8711 15.51 16.635 15.7461 16.3438 15.7461H5.65625C5.36502 15.7461 5.12891 15.51 5.12891 15.2188V7.34375Z" fill="black"/>
</svg>
