<svg width="22" height="22" viewBox="0 0 22 22" fill="none" xmlns="http://www.w3.org/2000/svg">
<path d="M19.64 15.3694L15.788 13.4435C15.7036 13.4018 15.6083 13.3877 15.5155 13.403C15.4227 13.4183 15.337 13.4624 15.2705 13.529L13.8125 14.9869C12.1948 14.5248 10.7215 13.6579 9.53181 12.4682C8.34211 11.2785 7.47525 9.80523 7.01305 8.18748L8.47105 6.72949C8.53761 6.663 8.58165 6.57731 8.59699 6.48449C8.61233 6.39166 8.59818 6.29636 8.55655 6.21199L6.63056 2.36001C6.60243 2.30456 6.56312 2.25553 6.5151 2.21603C6.46708 2.17653 6.41139 2.14741 6.35156 2.13051C6.05035 2.0431 5.7382 1.99916 5.42456 2.00001C4.51633 2.00001 3.6453 2.36081 3.00308 3.00302C2.36087 3.64524 2.00008 4.51627 2.00008 5.4245C1.99388 7.33873 2.36822 9.2351 3.10134 11.0034C3.83446 12.7717 4.91174 14.3766 6.27056 15.7249C7.61903 17.0851 9.22453 18.1635 10.9937 18.8975C12.7628 19.6314 14.6602 20.0061 16.5755 19.9999C17.4837 19.9999 18.3548 19.6391 18.997 18.9969C19.6392 18.3547 20 17.4837 20 16.5754C20.0005 16.2604 19.9566 15.9468 19.8695 15.6439C19.852 15.5849 19.8227 15.5301 19.7832 15.4829C19.7437 15.4357 19.695 15.3971 19.64 15.3694Z" fill="black"/>
<path d="M15.526 2.00002C14.6746 1.99755 13.84 2.24249 13.1184 2.70657C12.3969 3.17064 11.8177 3.83493 11.448 4.62272C11.0782 5.41051 10.9329 6.28969 11.0287 7.15873C11.1245 8.02777 11.4577 8.85124 11.9897 9.53406L11.1586 11.3506C11.1188 11.4366 11.1064 11.5334 11.123 11.6271C11.1397 11.7208 11.1846 11.8068 11.2515 11.8728C11.3334 11.954 11.4427 11.9995 11.5565 12C11.629 11.9996 11.7004 11.9809 11.7642 11.9455L13.7048 10.8965C14.3187 11.1675 14.9835 11.2952 15.6513 11.2701C16.319 11.2451 16.973 11.0681 17.5661 10.7518C18.1592 10.4355 18.6765 9.98792 19.0807 9.44127C19.4849 8.89462 19.7659 8.26259 19.9034 7.5908C20.0409 6.91901 20.0315 6.22423 19.8759 5.55663C19.7203 4.88902 19.4223 4.26525 19.0035 3.73034C18.5846 3.19543 18.0554 2.76275 17.4541 2.46351C16.8527 2.16428 16.1941 2.00597 15.526 2.00002ZM13.665 7.4496C13.512 7.4496 13.3624 7.40299 13.2352 7.31566C13.108 7.22834 13.0088 7.10422 12.9503 6.959C12.8917 6.81378 12.8764 6.65399 12.9063 6.49983C12.9361 6.34566 13.0098 6.20405 13.118 6.09291C13.2262 5.98176 13.364 5.90607 13.5141 5.87541C13.6641 5.84474 13.8197 5.86048 13.961 5.92063C14.1024 5.98079 14.2232 6.08265 14.3082 6.21334C14.3932 6.34403 14.4385 6.49769 14.4385 6.65487C14.4385 6.86565 14.357 7.06779 14.212 7.21683C14.0669 7.36587 13.8701 7.4496 13.665 7.4496ZM15.526 7.4496C15.373 7.4496 15.2234 7.40299 15.0962 7.31566C14.969 7.22834 14.8698 7.10422 14.8113 6.959C14.7527 6.81378 14.7374 6.65399 14.7673 6.49983C14.7971 6.34566 14.8708 6.20405 14.979 6.09291C15.0871 5.98176 15.225 5.90607 15.375 5.87541C15.5251 5.84474 15.6806 5.86048 15.822 5.92063C15.9633 5.98079 16.0841 6.08265 16.1691 6.21334C16.2541 6.34403 16.2995 6.49769 16.2995 6.65487C16.2995 6.86565 16.218 7.06779 16.0729 7.21683C15.9279 7.36587 15.7311 7.4496 15.526 7.4496ZM17.3869 7.4496C17.2339 7.4496 17.0844 7.40299 16.9572 7.31566C16.8299 7.22834 16.7308 7.10422 16.6722 6.959C16.6137 6.81378 16.5984 6.65399 16.6282 6.49983C16.6581 6.34566 16.7317 6.20405 16.8399 6.09291C16.9481 5.98176 17.086 5.90607 17.236 5.87541C17.3861 5.84474 17.5416 5.86048 17.683 5.92063C17.8243 5.98079 17.9451 6.08265 18.0301 6.21334C18.1151 6.34403 18.1605 6.49769 18.1605 6.65487C18.1605 6.86565 18.079 7.06779 17.9339 7.21683C17.7888 7.36587 17.5921 7.4496 17.3869 7.4496Z" fill="black"/>
</svg>
