<svg width="22" height="22" viewBox="0 0 22 22" fill="none" xmlns="http://www.w3.org/2000/svg">
<path d="M8.72719 2H3.27268C2.57089 2 2 2.58873 2 3.31244V6.68742C2 7.41127 2.57089 8 3.27268 8H8.72719C9.42911 8 10 7.41127 10 6.68742V3.31244C10 2.58873 9.42911 2 8.72719 2Z" fill="black"/>
<path d="M8.72719 9H3.27268C2.57089 9 2 9.61676 2 10.3751V18.6251C2 19.3832 2.57089 20 3.27268 20H8.72719C9.42911 20 10 19.3832 10 18.6251V10.3751C10 9.61676 9.42911 9 8.72719 9Z" fill="black"/>
<path d="M18.7273 14H13.2728C12.5709 14 12 14.5887 12 15.3126V18.6876C12 19.4113 12.5709 20 13.2728 20H18.7273C19.4291 20 20 19.4113 20 18.6876V15.3126C20 14.5887 19.4291 14 18.7273 14Z" fill="black"/>
<path d="M18.7273 2H13.2728C12.5709 2 12 2.61676 12 3.37495V11.6249C12 12.3832 12.5709 13 13.2728 13H18.7273C19.4291 13 20 12.3832 20 11.6249V3.37495C20 2.61676 19.4291 2 18.7273 2Z" fill="black"/>
</svg>
