<svg width="22" height="22" viewBox="0 0 22 22" fill="none" xmlns="http://www.w3.org/2000/svg">
<path d="M18.8132 15.0942C17.5532 14.0292 16.8307 12.4725 16.8307 10.8233V8.5C16.8307 5.5675 14.6524 3.14 11.8307 2.73333V1.83333C11.8307 1.3725 11.4574 1 10.9974 1C10.5374 1 10.1641 1.3725 10.1641 1.83333V2.73333C7.34156 3.14 5.16406 5.5675 5.16406 8.5V10.8233C5.16406 12.4725 4.44156 14.0292 3.17406 15.1008C2.8499 15.3783 2.66406 15.7817 2.66406 16.2083C2.66406 17.0125 3.31823 17.6667 4.1224 17.6667H17.8724C18.6766 17.6667 19.3307 17.0125 19.3307 16.2083C19.3307 15.7817 19.1449 15.3783 18.8132 15.0942Z" fill="black"/>
<path d="M10.9992 21C12.5083 21 13.7708 19.9242 14.0608 18.5H7.9375C8.2275 19.9242 9.49 21 10.9992 21Z" fill="black"/>
</svg>
