<svg width="22" height="22" viewBox="0 0 22 22" fill="none" xmlns="http://www.w3.org/2000/svg">
<path d="M10.3112 11.9167C10.3112 13.0535 9.38601 13.9792 8.2487 13.9792C7.11139 13.9792 6.1862 13.0535 6.1862 11.9167C6.1862 10.7798 7.11139 9.85417 8.2487 9.85417C9.38601 9.85417 10.3112 10.7798 10.3112 11.9167ZM20.8529 6.41667V17.4167C20.8529 18.8069 19.7223 19.9375 18.332 19.9375H3.66536C2.27515 19.9375 1.14453 18.8069 1.14453 17.4167V4.58333C1.14453 3.19312 2.27515 2.0625 3.66536 2.0625H6.95244C7.3808 2.0625 7.78358 2.22897 8.08663 2.53248L9.38289 3.82873C9.42588 3.87172 9.48446 3.89583 9.54496 3.89583H18.332C19.7223 3.89583 20.8529 5.02645 20.8529 6.41667ZM17.1862 10.0833C17.1862 9.70374 16.8783 9.39583 16.4987 9.39583C16.1191 9.39583 15.8112 9.70374 15.8112 10.0833V11.2292H14.4362V10.0833C14.4362 9.70374 14.1283 9.39583 13.7487 9.39583C13.3691 9.39583 13.0612 9.70374 13.0612 10.0833V11.2292H11.6167C11.2973 9.66222 9.90878 8.47917 8.2487 8.47917C6.35312 8.47917 4.8112 10.0216 4.8112 11.9167C4.8112 13.8118 6.35312 15.3542 8.2487 15.3542C9.90878 15.3542 11.2973 14.1711 11.6167 12.6042H16.4987C16.8783 12.6042 17.1862 12.2963 17.1862 11.9167V10.0833Z" fill="black"/>
</svg>
