<svg width="22" height="22" viewBox="0 0 22 22" fill="none" xmlns="http://www.w3.org/2000/svg">
<path d="M13.25 11.75C12.8353 11.75 12.5001 12.086 12.5001 12.4999V15.5C12.5001 15.9132 12.164 16.25 11.75 16.25H9.49998V4.99995C9.49998 4.35945 9.09198 3.7872 8.47853 3.5742L8.25646 3.49991H11.75C12.164 3.49991 12.5001 3.83664 12.5001 4.25V6.5C12.5001 6.91391 12.8353 7.24995 13.25 7.24995C13.6648 7.24995 14 6.91391 14 6.5V4.25C14 3.00951 12.9905 2 11.75 2H3.68751C3.65894 2 3.63505 2.01277 3.60731 2.01648C3.57119 2.01346 3.53672 2 3.50005 2C2.67278 2 2 2.67264 2 3.49991V16.9999C2 17.6404 2.40801 18.2127 3.02146 18.4257L7.53507 19.9302C7.68806 19.9775 7.84022 20 8.00007 20C8.82734 20 9.49998 19.3272 9.49998 18.5V17.75H11.75C12.9905 17.75 14 16.7405 14 15.5V12.4999C14 12.086 13.6648 11.75 13.25 11.75Z" fill="black"/>
<path d="M19.7868 9.00514L16.8777 6.20528C16.6698 6.00508 16.357 5.94484 16.0851 6.05327C15.8138 6.16183 15.6363 6.41727 15.6363 6.70014V8.80007H12.7273C12.3259 8.80007 12 9.11357 12 9.5C12 9.88643 12.3259 10.1999 12.7273 10.1999H15.6363V12.2999C15.6363 12.5827 15.8138 12.8382 16.0851 12.9467C16.357 13.0552 16.6698 12.9949 16.8777 12.7948L19.7868 9.99486C20.0711 9.72122 20.0711 9.27878 19.7868 9.00514Z" fill="black"/>
</svg>
