<svg width="22" height="22" viewBox="0 0 22 22" fill="none" xmlns="http://www.w3.org/2000/svg">
<path d="M18.5473 11.7168H16.9062C17.0735 12.1748 17.1649 12.669 17.1649 13.1841V19.3862C17.1649 19.601 17.1275 19.8071 17.0595 19.9989H19.7725C20.7859 19.9989 21.6104 19.1744 21.6104 18.161V14.7799C21.6104 13.0909 20.2363 11.7168 18.5473 11.7168Z" fill="black"/>
<path d="M4.83615 13.1841C4.83615 12.6689 4.92754 12.1748 5.09481 11.7168H3.45378C1.76475 11.7168 0.390625 13.0909 0.390625 14.7799V18.161C0.390625 19.1744 1.21508 19.9989 2.22852 19.9989H4.94155C4.87354 19.8071 4.83615 19.601 4.83615 19.3862V13.1841Z" fill="black"/>
<path d="M12.8734 10.123H9.12175C7.43272 10.123 6.05859 11.4972 6.05859 13.1862V19.3883C6.05859 19.7267 6.33287 20.001 6.67122 20.001H15.3239C15.6622 20.001 15.9365 19.7267 15.9365 19.3883V13.1862C15.9365 11.4972 14.5624 10.123 12.8734 10.123Z" fill="black"/>
<path d="M10.9963 2C8.96505 2 7.3125 3.65255 7.3125 5.68386C7.3125 7.06168 8.07296 8.26502 9.19602 8.8968C9.72871 9.19644 10.3428 9.36769 10.9963 9.36769C11.6498 9.36769 12.2639 9.19644 12.7966 8.8968C13.9197 8.26502 14.6801 7.06164 14.6801 5.68386C14.6801 3.65259 13.0276 2 10.9963 2Z" fill="black"/>
<path d="M4.53236 5.43359C3.01321 5.43359 1.77734 6.66946 1.77734 8.18861C1.77734 9.70775 3.01321 10.9436 4.53236 10.9436C4.91771 10.9436 5.28465 10.8638 5.61799 10.7203C6.19432 10.4722 6.66952 10.033 6.96356 9.48279C7.16996 9.09665 7.28737 8.65614 7.28737 8.18861C7.28737 6.66951 6.0515 5.43359 4.53236 5.43359Z" fill="black"/>
<path d="M17.4699 5.43359C15.9507 5.43359 14.7148 6.66946 14.7148 8.18861C14.7148 8.65618 14.8323 9.09669 15.0386 9.48279C15.3327 10.033 15.8079 10.4722 16.3842 10.7203C16.7176 10.8638 17.0845 10.9436 17.4699 10.9436C18.989 10.9436 20.2249 9.70775 20.2249 8.18861C20.2249 6.66946 18.989 5.43359 17.4699 5.43359Z" fill="black"/>
</svg>
