<svg width="28" height="30" viewBox="0 0 28 30" fill="none" xmlns="http://www.w3.org/2000/svg">
<path fill-rule="evenodd" clip-rule="evenodd" d="M14.0015 0.384766C8.41884 0.384766 3.89319 5.1022 3.89319 10.9214V11.8787C3.89319 12.8262 3.62413 13.7525 3.11991 14.5409L1.62179 16.8833C-0.116965 19.602 1.21043 23.2973 4.23456 24.157C5.22011 24.4372 6.21397 24.6742 7.2136 24.868L7.21607 24.875C8.21907 27.6647 10.8998 29.6155 14.0014 29.6155C17.103 29.6155 19.7838 27.6647 20.7868 24.875L20.7892 24.8681C21.7889 24.6742 22.7828 24.4372 23.7684 24.157C26.7926 23.2973 28.12 19.602 26.3812 16.8833L24.8831 14.5409C24.3789 13.7525 24.1098 12.8262 24.1098 11.8787V10.9214C24.1098 5.1022 19.5842 0.384766 14.0015 0.384766ZM18.4053 25.2472C15.4799 25.6115 12.523 25.6115 9.59748 25.2472C10.5248 26.636 12.1376 27.5762 14.0014 27.5762C15.8652 27.5762 17.478 26.636 18.4053 25.2472ZM5.84964 10.9214C5.84964 6.2285 9.49935 2.42412 14.0015 2.42412C18.5037 2.42412 22.1534 6.2285 22.1534 10.9214V11.8787C22.1534 13.2289 22.5368 14.5488 23.2552 15.6722L24.7534 18.0146C25.7514 19.575 24.9895 21.6961 23.2537 22.1895C17.1962 23.9116 10.8068 23.9116 4.74934 22.1895C3.01354 21.6961 2.25164 19.575 3.24965 18.0146L4.74777 15.6722C5.46625 14.5488 5.84964 13.2289 5.84964 11.8787V10.9214Z" fill="black"/>
</svg>
