<svg width="22" height="22" viewBox="0 0 22 22" fill="none" xmlns="http://www.w3.org/2000/svg">
<path d="M7.4 13.9992C9.55391 13.9992 11.3 12.2531 11.3 10.0992C11.3 7.94531 9.55391 6.19922 7.4 6.19922C5.24609 6.19922 3.5 7.94531 3.5 10.0992C3.5 12.2531 5.24609 13.9992 7.4 13.9992Z" fill="black"/>
<path d="M12.8 16.999V17.599C12.8 18.2355 12.5471 18.846 12.0971 19.2961C11.647 19.7462 11.0365 19.999 10.4 19.999H4.4C3.76348 19.999 3.15303 19.7462 2.70294 19.2961C2.25286 18.846 2 18.2355 2 17.599V16.999C1.99978 16.2364 2.20748 15.4882 2.60076 14.8349C2.99404 14.1815 3.55801 13.6478 4.232 13.291C5.07352 14.1287 6.21259 14.599 7.4 14.599C8.58741 14.599 9.72648 14.1287 10.568 13.291C11.242 13.6478 11.806 14.1815 12.1992 14.8349C12.5925 15.4882 12.8002 16.2364 12.8 16.999Z" fill="black"/>
<path d="M15.1984 2C13.9331 2.00136 12.7193 2.50176 11.8206 3.39257C10.922 4.28338 10.4109 5.4927 10.3984 6.758C10.8718 7.17629 11.2505 7.69078 11.5092 8.2671C11.7678 8.84342 11.9005 9.4683 11.8984 10.1C11.8994 10.1561 11.8974 10.2122 11.8924 10.268C12.4599 10.809 13.1514 11.2027 13.9064 11.4145C14.6613 11.6263 15.4566 11.6498 16.2228 11.4829C16.9889 11.3161 17.7024 10.9639 18.3009 10.4574C18.8993 9.95079 19.3645 9.30522 19.6556 8.57718C19.9467 7.84915 20.0549 7.06085 19.9707 6.2813C19.8865 5.50176 19.6125 4.75474 19.1726 4.10566C18.7327 3.45658 18.1405 2.92524 17.4476 2.55815C16.7548 2.19105 15.9825 1.99941 15.1984 2ZM15.1984 9.5C15.0798 9.5 14.9638 9.46481 14.8651 9.39888C14.7664 9.33296 14.6895 9.23925 14.6441 9.12961C14.5987 9.01998 14.5868 8.89934 14.61 8.78295C14.6331 8.66656 14.6903 8.55965 14.7742 8.47574C14.8581 8.39183 14.965 8.33468 15.0814 8.31153C15.1978 8.28838 15.3184 8.30026 15.428 8.34567C15.5377 8.39109 15.6314 8.46799 15.6973 8.56666C15.7632 8.66533 15.7984 8.78133 15.7984 8.9C15.7984 9.05913 15.7352 9.21174 15.6227 9.32427C15.5102 9.43679 15.3576 9.5 15.1984 9.5ZM15.7984 7.1C15.7984 7.25913 15.7352 7.41174 15.6227 7.52427C15.5102 7.63679 15.3576 7.7 15.1984 7.7C15.0393 7.7 14.8867 7.63679 14.7742 7.52427C14.6617 7.41174 14.5984 7.25913 14.5984 7.1V4.7C14.5984 4.54087 14.6617 4.38826 14.7742 4.27574C14.8867 4.16322 15.0393 4.1 15.1984 4.1C15.3576 4.1 15.5102 4.16322 15.6227 4.27574C15.7352 4.38826 15.7984 4.54087 15.7984 4.7V7.1Z" fill="black"/>
</svg>
