<svg width="22" height="22" viewBox="0 0 22 22" fill="none" xmlns="http://www.w3.org/2000/svg">
<path fill-rule="evenodd" clip-rule="evenodd" d="M21 12.5729V13.6528C21 13.8169 20.9016 13.9551 20.7496 14.0059L20.0574 14.2355C19.9477 14.2718 19.8691 14.3497 19.8293 14.4595C19.7937 14.5558 19.7562 14.6508 19.7141 14.7427C19.6652 14.8501 19.6676 14.9623 19.7207 15.0678L20.0508 15.7299C20.1227 15.8761 20.0973 16.0458 19.9844 16.1612L19.2371 16.9252C19.1242 17.0407 18.9582 17.0666 18.8152 16.9931L18.1676 16.6557C18.0645 16.6014 17.9551 16.599 17.8496 16.6489C17.7598 16.692 17.6668 16.7303 17.5727 16.7667C17.4652 16.8074 17.3887 16.8877 17.3535 16.9999L17.1289 17.7076C17.0855 17.8434 16.9762 17.9384 16.841 17.9588L16.2574 14.9328C17.2395 14.9316 18.0355 14.1177 18.0355 13.1125C18.0355 12.1073 17.2383 11.2933 16.2551 11.2933C15.491 11.2933 14.8387 11.7858 14.5863 12.4775C14.5629 12.4707 14.5387 12.4627 14.5145 12.4571L12.5633 11.9319C12.6164 11.8912 12.6562 11.8345 12.6816 11.7654C12.716 11.6691 12.7547 11.5753 12.7957 11.4822C12.8445 11.376 12.8422 11.2626 12.7902 11.1583L12.4602 10.495C12.3871 10.3488 12.4137 10.1791 12.5266 10.0637L13.273 9.30049C13.3871 9.18507 13.552 9.15791 13.6949 9.23259L14.3438 9.57006C14.4457 9.62318 14.5562 9.62557 14.6605 9.57565C14.7512 9.53372 14.8434 9.49418 14.9375 9.45903C15.0461 9.4183 15.1215 9.33683 15.1566 9.22461L15.3813 8.51812C15.4313 8.36197 15.5672 8.26133 15.7266 8.26133H16.7828C16.9434 8.26133 17.0785 8.36197 17.1281 8.51812L17.3527 9.22461C17.3883 9.33683 17.4645 9.4183 17.5719 9.45903C17.666 9.49418 17.759 9.53372 17.8488 9.57565C17.9539 9.62557 18.0637 9.62318 18.1668 9.57006L18.8145 9.23259C18.9574 9.15791 19.1234 9.18507 19.2363 9.30049L19.9844 10.0641C20.0973 10.1795 20.1227 10.3492 20.0508 10.4954L19.7207 11.1587C19.6676 11.263 19.6652 11.376 19.7141 11.4826C19.7562 11.5753 19.7937 11.6695 19.8293 11.7658C19.8691 11.8768 19.9477 11.9539 20.0574 11.9898L20.7496 12.2195C20.9012 12.2706 21 12.41 21 12.5729ZM16.4113 19.0854C16.4312 19.1917 16.4414 19.2983 16.4414 19.4013C16.4414 19.7807 16.3098 20.1362 16.0848 20.4145C15.8609 20.6941 15.5457 20.8958 15.1801 20.9692C15.0793 20.9896 14.9762 21 14.8711 21H13.5035C13.5113 20.9673 13.5168 20.9333 13.5211 20.8982L14.1809 15.2786C14.2152 14.9819 14.1254 14.6888 13.9316 14.4659C13.7355 14.2407 13.4656 14.1161 13.1711 14.1161H4.27109C3.97656 14.1161 3.70508 14.2407 3.51055 14.4659C3.3168 14.6888 3.22695 14.9823 3.26133 15.2786L3.9332 21H2.57148C2.46641 21 2.36211 20.9896 2.2625 20.9692C1.89727 20.8958 1.58164 20.6941 1.35781 20.4145C1.13281 20.1362 1 19.7807 1 19.4013C1 19.2983 1.01016 19.1921 1.03086 19.0854L1.94922 14.3265C2.00781 14.0198 2.14531 13.7491 2.34219 13.5342C2.53828 13.3201 2.79297 13.1652 3.08945 13.0849L5.69492 12.384C5.78477 12.3601 5.86328 12.3273 5.93281 12.2854C6.00273 12.2434 6.06914 12.1891 6.13203 12.12L6.74336 11.4679V11.0545C6.74336 11.0501 6.74453 11.0445 6.74453 11.0385C6.53984 10.904 6.34922 10.7478 6.17539 10.5745C5.57539 9.97662 5.17344 9.16949 5.08594 8.27171C4.84687 8.20941 4.6332 8.07921 4.46602 7.90389C4.23477 7.65948 4.0918 7.3276 4.0918 6.96218C4.0918 6.62471 4.21133 6.3168 4.41055 6.08037V3.96012C4.41055 3.51842 4.58672 3.11666 4.86992 2.82592C5.1125 2.57911 5.43242 2.41177 5.78906 2.36744C5.83984 2.01999 5.99961 1.70848 6.23203 1.47086C6.5168 1.17972 6.90859 1 7.34141 1H9.41328C10.4098 1 11.3145 1.41534 11.9699 2.08548C12.6254 2.75563 13.0316 3.68056 13.0316 4.69935V6.08037C13.2309 6.3168 13.3504 6.62471 13.3504 6.96218C13.3504 7.328 13.2074 7.65948 12.9762 7.90389C12.809 8.07921 12.5953 8.20941 12.3563 8.27171C12.2676 9.16949 11.8668 9.97662 11.2668 10.5745C11.093 10.7478 10.9023 10.904 10.6977 11.0385V11.0545V11.4679L11.309 12.12C11.373 12.1891 11.4387 12.2434 11.5082 12.2854C11.5789 12.3273 11.6578 12.3601 11.7473 12.384L14.3527 13.0849C14.6484 13.1652 14.9031 13.3205 15.1 13.5342C15.2973 13.7495 15.4332 14.0198 15.493 14.3265L16.4113 19.0854ZM8.72109 10.9878C9.53711 10.9878 10.2801 10.6527 10.825 10.1104C11.3719 9.56607 11.7187 8.81405 11.7395 7.98456C11.7426 7.81244 11.8777 7.67226 12.0473 7.66747C12.2332 7.66187 12.4004 7.5804 12.5223 7.45221C12.6418 7.3264 12.716 7.15348 12.716 6.96218C12.716 6.76729 12.6387 6.59077 12.5133 6.46297C12.3895 6.33637 12.2164 6.25689 12.0262 6.25689C11.984 6.25689 11.9441 6.26009 11.909 6.26608C11.8758 6.27167 11.8449 6.27966 11.8125 6.29084C11.7758 6.30682 11.7352 6.3148 11.6918 6.3148C11.5168 6.3148 11.3738 6.16983 11.3738 5.99091V5.45097C11.3738 5.34793 11.357 5.25528 11.323 5.17141C11.2887 5.08634 11.2355 5.00847 11.1656 4.93698C11.0949 4.86549 11.0184 4.81238 10.9352 4.77843C10.85 4.74329 10.759 4.72651 10.6605 4.72651C9.95312 4.7333 9.27852 4.70495 8.64297 4.63705C8.01055 4.56916 7.41484 4.46253 6.86016 4.31197C6.42148 4.30957 6.26211 5.22572 6.14687 5.88548L6.1168 6.05202C6.11367 6.08037 6.10664 6.10873 6.0957 6.13589C6.02812 6.30122 5.84219 6.3791 5.68164 6.31121C5.64062 6.29324 5.59766 6.27966 5.55117 6.27047C5.50703 6.26129 5.46133 6.25689 5.41484 6.25689C5.22422 6.25689 5.05156 6.33597 4.92656 6.46297C4.80273 6.59077 4.725 6.76769 4.725 6.96218C4.725 7.15348 4.79922 7.3268 4.91875 7.45221C5.04062 7.58 5.20781 7.66147 5.39258 7.66747C5.55977 7.67186 5.69727 7.81004 5.70039 7.98337C5.72148 8.81326 6.06914 9.56607 6.61484 10.1104C7.16094 10.6527 7.90391 10.9878 8.72109 10.9878ZM10.0633 11.3752C9.64688 11.5437 9.19414 11.638 8.72109 11.638C8.24805 11.638 7.79531 11.5441 7.37891 11.3752V11.7478C7.37891 12.1272 7.52969 12.4699 7.77188 12.7179C8.01445 12.9659 8.35 13.1197 8.7207 13.1197C9.09141 13.1197 9.42695 12.9659 9.66953 12.7179C9.91211 12.4699 10.0625 12.1268 10.0625 11.7478V11.3752H10.0633ZM13.55 15.2016L12.8902 20.8211C12.8793 20.9241 12.7949 21 12.693 21H4.57227L3.89141 15.2016C3.87812 15.0873 3.91016 14.9831 3.98555 14.896C4.06094 14.8102 4.1582 14.7647 4.27109 14.7647H13.1715C13.2844 14.7647 13.382 14.8098 13.457 14.896C13.5324 14.9831 13.5633 15.0869 13.55 15.2016ZM9.42539 17.8821C9.42539 17.486 9.10859 17.1621 8.72109 17.1621C8.33242 17.1621 8.01563 17.486 8.01563 17.8821C8.01563 18.2795 8.33242 18.6022 8.72109 18.6022C9.10859 18.6022 9.42539 18.2795 9.42539 17.8821Z" fill="black"/>
</svg>
