<svg width="64" height="64" viewBox="0 0 64 64" fill="none" xmlns="http://www.w3.org/2000/svg">
<path d="M38.2042 36.663L26.9751 34.0254H17.5593L6.33992 36.663C3.75083 37.3515 1.9375 39.7078 1.9375 42.4036V59.3733H42.6163V42.4036C42.6163 39.7078 40.8127 37.3515 38.2042 36.663Z" fill="#8E76FF"/>
<path d="M29.8468 34.6953L22.2734 39.9802L27.6843 44.7317L33.9486 35.6553L29.8468 34.6953Z" fill="#DEDFFF"/>
<path d="M10.8008 35.6165L16.8711 44.7317L22.2723 39.9802L14.7087 34.6953L10.8008 35.6165Z" fill="#DEDFFF"/>
<path d="M26.3467 59.3745H18.2109L20.3443 47.0496L19.2291 46.0799L18.434 43.3454L22.2837 39.9902L26.1237 43.3454L25.3285 46.0799L24.2134 47.0496L26.3467 59.3745Z" fill="url(#paint0_linear_415_10372)"/>
<path d="M54.4952 22.2734H44.0128C43.4892 22.2734 43.0625 22.7001 43.0625 23.2237V26.1813C43.0625 26.705 43.4892 27.1316 44.0128 27.1316H54.4952C55.0189 27.1316 55.4455 26.705 55.4455 26.1813V23.2237C55.4455 22.7001 55.0286 22.2734 54.4952 22.2734Z" fill="#653DC5"/>
<path d="M60.1583 24.6973H55.4456V26.1809C55.4456 26.7045 55.0189 27.1312 54.4953 27.1312H44.0129C43.4892 27.1312 43.0626 26.7045 43.0626 26.1809V24.707H38.3498C37.3026 24.707 36.4492 25.5603 36.4492 26.6076V57.4827C36.4492 58.53 37.3026 59.3833 38.3498 59.3833H60.1583C61.2056 59.3833 62.0589 58.53 62.0589 57.4827V26.5979C62.0589 25.5506 61.2056 24.6973 60.1583 24.6973Z" fill="url(#paint1_linear_415_10372)"/>
<path d="M33.008 19.1604C32.9402 19.1604 32.8723 19.1798 32.8044 19.1798C32.3874 18.181 31.5535 16.1446 30.7874 14.1762C29.8177 11.6937 26.7147 10.7434 24.2808 11.8392C23.5729 12.1592 22.9135 12.5859 22.3414 13.1095C18.5499 17.5022 13.8662 13.1095 13.8662 13.1095L14.002 13.4974C14.768 15.6113 14.0796 17.9386 12.3826 19.3156C12.1111 19.2283 11.8299 19.1701 11.539 19.1701C10.0068 19.1701 8.76562 20.4113 8.76562 21.9434C8.76562 23.4756 10.0068 24.7168 11.539 24.7168C11.568 24.7168 11.5874 24.7071 11.6068 24.7071C12.1984 29.9919 16.6299 34.598 21.9826 34.7337C27.8008 34.8792 32.5911 30.3992 32.9596 24.7071H32.9984C34.5305 24.7071 35.7717 23.4659 35.7717 21.9337C35.7717 20.4016 34.5402 19.1604 33.008 19.1604Z" fill="#FF8D61"/>
<path d="M28.2343 32.9013C26.4598 34.094 24.307 34.7825 21.9895 34.7243C19.9046 34.6662 17.9652 33.9389 16.3361 32.7559C16.2585 33.6771 15.6379 34.4819 14.707 34.6953L22.2804 39.9801L29.8537 34.6953C28.9616 34.4916 28.3701 33.7643 28.2343 32.9013Z" fill="#FF8D61"/>
<path d="M18.7342 21.9333C19.3555 21.9333 19.8591 21.4297 19.8591 20.8084C19.8591 20.1872 19.3555 19.6836 18.7342 19.6836C18.113 19.6836 17.6094 20.1872 17.6094 20.8084C17.6094 21.4297 18.113 21.9333 18.7342 21.9333Z" fill="#653DC5"/>
<path d="M25.8241 21.9333C26.4453 21.9333 26.9489 21.4297 26.9489 20.8084C26.9489 20.1872 26.4453 19.6836 25.8241 19.6836C25.2028 19.6836 24.6992 20.1872 24.6992 20.8084C24.6992 21.4297 25.2028 21.9333 25.8241 21.9333Z" fill="#653DC5"/>
<path d="M22.2718 28.5961C21.2536 28.5961 20.284 28.1985 19.5664 27.4712C19.2852 27.19 19.2852 26.7245 19.5664 26.4433C19.8476 26.1621 20.313 26.1621 20.5943 26.4433C21.4864 27.3355 23.0573 27.3355 23.9494 26.4433C24.2306 26.1621 24.6961 26.1621 24.9773 26.4433C25.2585 26.7245 25.2585 27.19 24.9773 27.4712C24.2597 28.1985 23.2997 28.5961 22.2718 28.5961Z" fill="white"/>
<path d="M26.5573 6.44781C25.1416 4.43084 17.607 3.5872 13.9803 6.61266C7.21186 12.266 11.6143 19.8393 11.6143 19.8393C13.864 18.6078 14.8822 15.9218 14.0094 13.5072L13.8737 13.1193C13.8737 13.1193 18.5573 17.5121 22.3488 13.1193C22.921 12.6054 23.5803 12.169 24.2882 11.849C26.7222 10.763 29.8252 11.7133 30.7949 14.186C31.8616 16.9205 33.0834 19.8296 33.0834 19.8296C38.7949 4.47933 26.5573 6.44781 26.5573 6.44781Z" fill="#653DC5"/>
<path opacity="0.1" d="M28.2446 32.9012C26.4701 34.0939 24.3174 34.7824 21.9998 34.7242C19.9052 34.666 17.9658 33.9291 16.3271 32.7363C16.2689 33.4345 15.9198 34.0551 15.3477 34.4139C17.2774 35.7715 19.5464 36.5957 21.9416 36.6539H22.2713C24.8798 36.6539 27.304 35.8491 29.3307 34.4818C28.7392 34.1715 28.3416 33.58 28.2446 32.9012Z" fill="black"/>
<path opacity="0.1" d="M18.4336 43.3454L19.0348 45.4108L22.2736 42.5599L25.5221 45.4108L26.1233 43.3454L22.2833 39.9902L18.4336 43.3454Z" fill="black"/>
<path opacity="0.1" d="M36.4472 57.4734V36.2468L34.5078 35.791V57.4734C34.5078 58.1619 34.7114 58.8116 35.0314 59.3644H38.3284C37.2908 59.3644 36.4472 58.5207 36.4472 57.4734Z" fill="black"/>
<rect x="46.75" y="32" width="5" height="17.5" rx="2.5" fill="white"/>
<rect x="46.75" y="50.75" width="5" height="5" rx="2.5" fill="white"/>
<defs>
<linearGradient id="paint0_linear_415_10372" x1="22.2778" y1="40.6613" x2="22.2778" y2="58.7645" gradientUnits="userSpaceOnUse">
<stop stop-color="#FEFDFF"/>
<stop offset="1" stop-color="#DEDFFF"/>
</linearGradient>
<linearGradient id="paint1_linear_415_10372" x1="49.256" y1="59.3727" x2="49.256" y2="25.3053" gradientUnits="userSpaceOnUse">
<stop stop-color="#FF8D61"/>
<stop offset="1" stop-color="#FFCD0A"/>
</linearGradient>
</defs>
</svg>
