<svg width="64" height="64" viewBox="0 0 64 64" fill="none" xmlns="http://www.w3.org/2000/svg">
<path d="M54.7705 34.1445H48.274C43.1841 34.1445 39.0156 38.295 39.0156 43.3849V53.5737C39.0156 56.6275 41.5278 59.1292 44.5818 59.1292H58.4628C61.5168 59.1292 64.0003 56.6275 64.0003 53.5737V43.3849C64.0003 38.2949 59.8604 34.1445 54.7705 34.1445Z" fill="#FF504A"/>
<path d="M51.5223 34.1445H48.274C43.1841 34.1445 39.0156 38.295 39.0156 43.3849V53.5737C39.0156 56.6275 41.5278 59.1292 44.5818 59.1292H51.5223V34.1445Z" fill="#FF7959"/>
<path d="M51.5209 15.2168C46.943 15.2168 43.2188 18.9412 43.2188 23.5189C43.2188 28.0968 46.943 31.8212 51.5209 31.8212C56.0987 31.8212 59.823 28.0968 59.823 23.5189C59.823 18.9413 56.0987 15.2168 51.5209 15.2168Z" fill="#FF504A"/>
<path d="M51.5209 15.2168C46.943 15.2168 43.2188 18.9412 43.2188 23.5189C43.2188 28.0968 46.943 31.8212 51.5209 31.8212V15.2168Z" fill="#FF7959"/>
<path d="M15.7548 34.1445H9.25838C4.1685 34.1445 0 38.2949 0 43.3848V53.5735C0 56.6274 2.51213 59.129 5.56612 59.129H19.4471C22.5011 59.129 24.9846 56.6274 24.9846 53.5735V43.3848C24.9846 38.2949 20.8447 34.1445 15.7548 34.1445Z" fill="#2FD163"/>
<path d="M12.5066 34.1445H9.25838C4.1685 34.1445 0 38.295 0 43.3849V53.5737C0 56.6275 2.51213 59.1292 5.56612 59.1292H12.5066V34.1445Z" fill="#7EFF76"/>
<path d="M37.6534 29.3457H26.3479C21.2581 29.3457 17.1172 33.4866 17.1172 38.5765V57.2666C17.1172 58.2862 17.9438 59.1127 18.9633 59.1127H45.0381C46.0577 59.1127 46.8842 58.2862 46.8842 57.2666V38.5765C46.8842 33.4866 42.7433 29.3457 37.6534 29.3457Z" fill="#3594C7"/>
<path d="M32.0631 29.3457H26.3479C21.2581 29.3457 17.1172 33.4866 17.1172 38.5765V57.2666C17.1172 58.2862 17.9438 59.1127 18.9633 59.1127H32.0631V29.3457Z" fill="#16DCFA"/>
<path d="M31.9997 4.86914C25.8784 4.86914 20.8984 9.84914 20.8984 15.9704C20.8984 22.0916 25.8783 27.0716 31.9997 27.0716C38.1211 27.0716 43.1009 22.0916 43.1009 15.9704C43.1009 9.84914 38.1209 4.86914 31.9997 4.86914Z" fill="#3594C7"/>
<path d="M31.9997 4.86914C25.8784 4.86914 20.8984 9.84914 20.8984 15.9704C20.8984 22.0916 25.8783 27.0716 31.9997 27.0716V4.86914Z" fill="#16DCFA"/>
<path d="M12.5052 15.2168C7.92737 15.2168 4.20312 18.9412 4.20312 23.5189C4.20312 28.0968 7.92737 31.8212 12.5052 31.8212C17.0831 31.8212 20.8074 28.0968 20.8074 23.5189C20.8074 18.9413 17.0831 15.2168 12.5052 15.2168Z" fill="#2FD163"/>
<path d="M12.5052 15.2168C7.92737 15.2168 4.20312 18.9412 4.20312 23.5189C4.20312 28.0968 7.92737 31.8212 12.5052 31.8212V15.2168Z" fill="#7EFF76"/>
</svg>
